<svg>
	<symbol id="telegram" viewBox="0 0 512 512" fill="currentColor" version="1.1" xmlns="http://www.w3.org/2000/svg">
		<path d="M470.4354553,45.4225006L16.8273029,221.2490387c-18.253809,8.1874695-24.4278889,24.5854034-4.4127407,33.4840851l116.3710175,37.1726685l281.3674316-174.789505c15.3625488-10.9733887,31.0910339-8.0470886,17.5573425,4.023468L186.0532227,341.074646l-7.5913849,93.0762329c7.0313721,14.3716125,19.9055786,14.4378967,28.1172485,7.2952881l66.8582916-63.5891418l114.5050659,86.1867065c26.5942688,15.8265076,41.0652466,5.6130371,46.7870789-23.3935242L509.835083,83.1804428C517.6329956,47.474514,504.3345032,31.7425518,470.4354553,45.4225006z" />
	</symbol>
	<symbol id="linkedin" fill="currentColor" version="1.1" viewBox="0 0 430.1 430.1" xml:space="preserve" xmlns="http://www.w3.org/2000/svg" xmlns:xlink="http://www.w3.org/1999/xlink">
		<path d="M430.1,261.5v159h-92.2V272.2c0-37.3-13.3-62.7-46.7-62.7c-25.5,0-40.6,17.1-47.3,33.7     c-2.4,5.9-3.1,14.2-3.1,22.5v154.9h-92.2c0,0,1.2-251.3,0-277.3h92.2v39.3c-0.2,0.3-0.4,0.6-0.6,0.9h0.6v-0.9     c12.3-18.9,34.1-45.8,83.1-45.8C384.6,136.7,430.1,176.4,430.1,261.5z M52.2,9.6C20.6,9.6,0,30.3,0,57.5c0,26.6,20,47.9,51,47.9     h0.6c32.2,0,52.2-21.3,52.2-47.9C103.1,30.3,83.7,9.6,52.2,9.6z M5.5,420.6h92.2V143.2H5.5V420.6z" id="LinkedIn" />
	</symbol>
	<symbol id="download" viewBox="0 0 24 24" fill="currentColor" xmlns="http://www.w3.org/2000/svg">
		<path d="M8.00006 2V2L8.00006 8H10L6 13L2 8H4L4 2H8.00006Z" />
		<path d="M10.5847 16.4004H9.9393V14.8413H10.5942C10.7625 14.8436 10.8967 14.9192 10.9968 15.068C11.0969 15.2145 11.147 15.4125 11.147 15.6621C11.147 15.9025 11.098 16.0856 11 16.2115C10.902 16.3375 10.7636 16.4004 10.5847 16.4004Z" />
		<path d="M13.6645 18.1621V14.8413H14.0064C14.2982 14.8505 14.5048 14.9478 14.6262 15.1332C14.7476 15.3164 14.8083 15.6415 14.8083 16.1085V16.9773C14.8019 17.4123 14.7348 17.7191 14.607 17.8977C14.4792 18.0739 14.2588 18.1621 13.9457 18.1621H13.6645Z" />
		<path fill-rule="evenodd" clip-rule="evenodd" d="M6.00006 14.6008L12.0807 7H9.00006L9.00006 2H15C15.0113 2 15.0221 2.0032 15.033 2.00647C15.0424 2.00925 15.0519 2.01208 15.062 2.013C15.151 2.018 15.237 2.036 15.321 2.064C15.331 2.06742 15.3409 2.07056 15.3508 2.07367C15.3727 2.08056 15.3943 2.08736 15.415 2.097C15.521 2.146 15.622 2.207 15.708 2.293L21.708 8.293C21.794 8.379 21.855 8.48 21.904 8.586C21.9132 8.60784 21.9203 8.62967 21.9276 8.65186L21.937 8.68C21.965 8.764 21.982 8.85 21.987 8.938C21.9879 8.94812 21.9907 8.95761 21.9935 8.96694C21.9968 8.9779 22 8.98867 22 9V20C22 21.103 21.103 22 20 22H8C6.897 22 6 21.103 6 20L6.00006 14.6008ZM15 9V4L20 9H15ZM9.9393 19V17.2418H10.5655C11.0447 17.2418 11.4196 17.0998 11.6901 16.8159C11.9606 16.5321 12.0958 16.1451 12.0958 15.6552C12.0958 15.1653 11.9585 14.7669 11.6837 14.4602C11.4111 14.1534 11.0447 14 10.5847 14H9V19H9.9393ZM12.7252 14V19H13.9297C14.4963 19 14.9404 18.8134 15.262 18.4402C15.5857 18.0648 15.7476 17.5485 15.7476 16.8915V16.081C15.7412 15.4354 15.5761 14.9272 15.2524 14.5563C14.9308 14.1854 14.4984 14 13.9553 14H12.7252ZM18.8243 16.9602H17.3642V19H16.4249V14H19V14.8413H17.3642V16.1223H18.8243V16.9602Z" />
	</symbol>
	<symbol id="github" fill="currentColor" version="1.1" viewBox="0 0 1024 1024" xml:space="preserve" xmlns="http://www.w3.org/2000/svg" xmlns:xlink="http://www.w3.org/1999/xlink">
		<path clip-rule="evenodd" d="M667.575,684.036c29.498,42.729,31.01,91.438,30.54,140.826    c-0.57,59.8-0.111,119.604-0.05,179.408c0.022,19.207-0.445,19.731-19.1,19.729c-78.256-0.012-156.512-0.005-234.769-0.007    c-17.454,0-19.02-1.667-18.996-19.188c0.055-38.141,0.018-76.282,0.018-116.467c-13.499,1.382-27.038,2.831-40.589,4.143    c-66.12,6.401-123.748-10.497-168.359-62.186c-6.244-7.236-11.229-15.609-16.383-23.721    c-22.712-35.758-44.708-71.988-68.222-107.205c-7.278-10.897-18.543-19.128-27.959-28.601c-4.959-4.988-9.87-10.026-15.707-15.965    c16.315-10.603,31.94-7.718,46.736-5.44c36.94,5.688,61.914,28.566,81.694,58.915c9.845,15.105,20.032,30.51,32.675,43.164    c40.49,40.528,89.668,53.605,145.37,40.97c35.929-8.152,28.961-4.369,34.328-37.189c3.585-21.921,9.63-42.799,21.561-61.729    c1.978-3.141,3.617-6.494,6.054-10.913c-15.766-3.111-30.49-5.605-45.016-8.956c-57.636-13.29-110.782-35.758-152.841-78.96    c-44.573-45.789-68.698-100.626-70.376-164.982c-1.411-54.079-1.079-107.997,11.167-161.119    c7.859-34.098,22.069-64.649,47.012-89.985c3.865-3.928,6.128-13.232,4.327-18.359c-17.77-50.603-15.334-100.626,1.086-150.939    c2.823-8.653,5.798-10.738,14.439-8.377c31.695,8.664,58.827,25.018,81.457,48.459c15.443,15.996,29.577,33.263,44.914,50.663    c39.151-28.285,85.473-29.278,131.177-31.946c50.531-2.949,101.104-2.15,150.76,8.614c19.284,4.182,37.626,12.71,54.768,18.69    c20.14-19.135,40.941-38.615,61.418-58.433c18.493-17.898,40.396-29.047,65.105-35.647c9.458-2.526,14.257-0.28,17.46,8.951    c16.997,48.973,19.867,97.926,0.771,147.019c-2.784,7.161-4.695,13.899,1.884,20.188c33.405,31.945,50.024,72.171,53.556,117.249    c3.73,47.601,8.206,95.606,5.865,143.117c-4.347,88.167-48.115,154.374-124.163,198.896    c-40.771,23.87-85.285,36.961-131.779,43.855c-2.664,0.394-5.354,0.662-7.979,1.232    C670.368,682.044,669.446,682.926,667.575,684.036z" fill-rule="evenodd" />
	</symbol>
	<symbol id="facebook" version="1.1" viewBox="0 0 512 512" fill="currentColor" xmlns="http://www.w3.org/2000/svg" xmlns:xlink="http://www.w3.org/1999/xlink">
		<path d="M308.3,508.5c-2.5,0.1-4.1,0.3-5.7,0.3c-34.2,0-68.3-0.1-102.5,0.1c-4.8,0-6.1-1.3-6.1-6.1c0.1-79.6,0.1-159.3,0.1-238.9   c0-2.1,0-4.2,0-6.9c-18.6,0-36.7,0-55.1,0c0-28.4,0-56.3,0-85c1.9,0,3.7,0,5.4,0c15,0,30-0.1,45,0.1c3.8,0,4.8-1.1,4.8-4.8   c-0.2-22.3-0.2-44.7,0-67c0.1-15.6,2.6-30.8,9.8-44.9c10.3-19.9,26.6-32.8,47.2-40.8c16.8-6.6,34.5-9,52.3-9.3   c29-0.4,58-0.2,87-0.3c2.7,0,4.9-0.1,4.9,3.7c-0.1,27.5-0.1,55-0.1,82.5c0,0.3-0.1,0.6-0.5,1.9c-1.7,0-3.6,0-5.5,0   c-18,0-36-0.1-54,0c-10.4,0-18.8,4.2-24.1,13.3c-1.6,2.7-2.6,6.2-2.6,9.4c-0.3,17,0,34-0.2,51c0,4,1.2,5.1,5.1,5.1   c25-0.2,50-0.1,75-0.1c2,0,3.9,0,7.3,0c-3.5,28.6-6.9,56.6-10.4,84.9c-26,0-51.3,0-77.1,0C308.3,340.8,308.3,424.4,308.3,508.5z" />
	</symbol>
	<symbol id="instagram" version="1.1" viewBox="0 0 1024 1024" fill="currentColor" xml:space="preserve" xmlns="http://www.w3.org/2000/svg" xmlns:xlink="http://www.w3.org/1999/xlink">
		<path clip-rule="evenodd" d="M512.305,0.122c70.856,0,141.717-0.328,212.571,0.094     c66.662,0.398,129.269,15.6,183.515,56.125c70.84,52.923,107.091,125.214,113.838,212.445c2.376,30.7,1.637,61.667,1.677,92.512     c0.161,119.619,0.072,239.239,0.059,358.86c-0.005,48.856-6.799,96.557-27.473,141.232     c-41.938,90.623-115.091,140.165-211.608,157.334c-20.125,3.579-40.886,4.916-61.359,4.977     c-141.333,0.417-282.669,0.321-424.003,0.174c-73.495-0.075-140.713-19.483-197.994-67.166     c-58.197-48.439-88.907-111.793-98.46-186.071c-1.648-12.811-2.657-25.805-2.669-38.714     C0.261,583.352-0.636,434.771,0.82,286.214c0.796-81.166,27.822-153.13,88.244-209.835     c50.119-47.032,111.04-71.607,178.739-74.012c81.404-2.892,162.991-0.685,244.499-0.685     C512.303,1.161,512.303,0.641,512.305,0.122z M511.505,929.369c68.18,0,136.358,0.274,204.534-0.188     c17.83-0.121,35.919-1.007,53.414-4.171c66.827-12.081,117.634-45.6,144.26-110.67c13.528-33.055,17.946-68.524,18.522-102.876     c2.237-133.271,0.976-266.602,0.819-399.911c-0.018-14.442-0.174-29.045-2.217-43.295     c-9.163-63.988-36.903-116.435-95.792-148.329c-32.869-17.801-68.551-24.522-105.64-24.534     c-142.831-0.042-285.662-0.084-428.492,0.087c-12.908,0.016-25.93,0.73-38.702,2.525     c-72.746,10.214-126.329,46.066-153.145,116.6c-10.822,28.463-14.28,58.288-14.286,88.569     c-0.021,139.403-0.155,278.803,0.183,418.208c0.041,17.055,1.313,34.355,4.366,51.114     c13.543,74.355,55.004,125.461,128.843,146.011c24.606,6.845,50.909,9.868,76.522,10.384     C373.608,930.277,442.565,929.364,511.505,929.369z" fill-rule="evenodd" />
		<path clip-rule="evenodd" d="M775.903,510.369c-0.064,145.777-119.005,264.347-264.821,263.991     c-145.871-0.353-263.345-118.096-263.43-264.029C247.567,364.56,366.331,245.98,512.255,246.139     C656.921,246.295,775.968,365.605,775.903,510.369z M511.878,679.188c93.007,0.071,169.609-76.475,169.448-169.325     c-0.161-92.206-76.568-168.757-168.818-169.132c-92.873-0.377-169.438,75.935-169.635,169.074     C342.677,603.077,418.542,679.114,511.878,679.188z" fill-rule="evenodd" />
		<path clip-rule="evenodd" d="M785.693,299.338c-33.019-0.295-59.047-26.717-58.941-59.832     c0.104-33.491,26.785-59.75,60.471-59.52c32.644,0.226,59.246,27.168,59.147,59.904     C846.27,273.09,819.174,299.637,785.693,299.338z" fill-rule="evenodd" />
	</symbol>
	<symbol id="ukraine" width="843" height="444" viewBox="0 0 843 444" fill="currentColor" xmlns="http://www.w3.org/2000/svg">
		<g filter="url(#filter0_i_14_28)">
			<path d="M843 159.898L836.918 148.514L794.811 128.695L741.399 129.002L712.233 101.43L678.628 112.138L651.879 104.076L633.324 108.999L598.467 60.9297L573.747 59.2688L557.062 8.00023L490.313 0L477.293 13.17L421.539 12.6164L403.606 33.2355L401.811 58.8997L384.345 44.8044L348.709 49.6051L339.429 35.2655L274.242 39.6347L183.478 9.0477L132.483 6.83061L94.2744 33.8489L109.244 75.5786L32.1262 130.356L37.5859 160.33L22.9256 155.344L0 180.58L37.4279 217.568L108.622 228.277L124.059 242.25L185.427 231.17L192.991 219.354L251.316 208.336L313.619 238.003L324.147 264.652L344.576 277.209L343.486 298.379L359.704 322.876L324.068 330.754L310.813 350.204L274.788 375.621L299.117 393.041L368.829 362.389L402.826 328.108L422.241 318.26L460.294 313.582L454.601 324.722L452.806 326.876L474.484 347.002L541.934 347.249L545.286 359.005L487.195 384.606L539.204 405.041L539.675 418.583L530.161 434.768L548.016 444L578.038 435.506L643.305 402.211L684.006 403.687L690.088 383.252L667.633 382.085L635.194 392.178L610.477 368.544L557.055 342.079L622.483 338.448L623.184 338.755L652.818 315.674L733.133 288.04L763.853 285.825L767.986 257.206L799.411 241.325L834.112 240.402L842.453 214.922L827.405 180.824L843 159.898Z" fill="white" fill-opacity="0.14" />
		</g>
		<defs>
			<filter id="filter0_i_14_28" x="0" y="-4" width="843" height="448" filterUnits="userSpaceOnUse" color-interpolation-filters="sRGB">
				<feFlood flood-opacity="0" result="BackgroundImageFix" />
				<feBlend mode="normal" in="SourceGraphic" in2="BackgroundImageFix" result="shape" />
				<feColorMatrix in="SourceAlpha" type="matrix" values="0 0 0 0 0 0 0 0 0 0 0 0 0 0 0 0 0 0 127 0" result="hardAlpha" />
				<feOffset dy="-20" />
				<feGaussianBlur stdDeviation="2" />
				<feComposite in2="hardAlpha" operator="arithmetic" k2="-1" k3="1" />
				<feColorMatrix type="matrix" values="0 0 0 0 0 0 0 0 0 0 0 0 0 0 0 0 0 0 0.25 0" />
				<feBlend mode="normal" in2="shape" result="effect1_innerShadow_14_28" />
			</filter>
		</defs>
	</symbol>
	<symbol id="arr" fill="currentColor" version="1.1" xmlns="http://www.w3.org/2000/svg" viewBox="0 0 64 64" xmlns:xlink="http://www.w3.org/1999/xlink">
		<path d="m60.533,15.733l-28.56,28.328-28.579-28.348c-0.397-0.394-0.917-0.59-1.437-0.59s-1.039,0.196-1.436,0.59c-0.793,0.787-0.793,2.062 0,2.849l29.98,29.735c0.2,0.2 0.494,0.375 0.757,0.476 0.75,0.282 1.597,0.107 2.166-0.456l29.981-29.735c0.793-0.787 0.793-2.062 0-2.849-0.794-0.786-2.078-0.786-2.872,7.10543e-15z" />
	</symbol>
</svg>
