<svg>
	<symbol id="linkedin" viewBox="0 0 512 512" xmlns="http://www.w3.org/2000/svg">
		<path d="M256,0C114.615,0,0,114.615,0,256S114.615,512,256,512,512,397.385,512,256,397.385,0,256,0ZM183.435,382.667H126.381V203.653h57.054ZM154.908,180.208a32.1,32.1,0,1,1,32.1-32.1A32.1,32.1,0,0,1,154.908,180.208ZM389.2,382.667h-56l0-97.882c0-4.973.785-37.949-27.219-37.949a30.948,30.948,0,0,0-25.681,12.576,39.134,39.134,0,0,0-7.818,23.8v99.451H216.55V203.653h53.216v25.124c12.737-19.541,28.789-26.694,44.578-29.573,28.027-5.11,74.851,11.952,74.851,62.9Z" />
	</symbol>
	<symbol id="telegram" viewBox="0 0 32 32" version="1.1" xmlns="http://www.w3.org/2000/svg">
		<path d="M22.122 10.040c0.006-0 0.014-0 0.022-0 0.209 0 0.403 0.065 0.562 0.177l-0.003-0.002c0.116 0.101 0.194 0.243 0.213 0.403l0 0.003c0.020 0.122 0.031 0.262 0.031 0.405 0 0.065-0.002 0.129-0.007 0.193l0-0.009c-0.225 2.369-1.201 8.114-1.697 10.766-0.21 1.123-0.623 1.499-1.023 1.535-0.869 0.081-1.529-0.574-2.371-1.126-1.318-0.865-2.063-1.403-3.342-2.246-1.479-0.973-0.52-1.51 0.322-2.384 0.221-0.23 4.052-3.715 4.127-4.031 0.004-0.019 0.006-0.040 0.006-0.062 0-0.078-0.029-0.149-0.076-0.203l0 0c-0.052-0.034-0.117-0.053-0.185-0.053-0.045 0-0.088 0.009-0.128 0.024l0.002-0.001q-0.198 0.045-6.316 4.174c-0.445 0.351-1.007 0.573-1.619 0.599l-0.006 0c-0.867-0.105-1.654-0.298-2.401-0.573l0.074 0.024c-0.938-0.306-1.683-0.467-1.619-0.985q0.051-0.404 1.114-0.827 6.548-2.853 8.733-3.761c1.607-0.853 3.47-1.555 5.429-2.010l0.157-0.031zM15.93 1.025c-8.302 0.020-15.025 6.755-15.025 15.060 0 8.317 6.742 15.060 15.060 15.060s15.060-6.742 15.060-15.060c0-8.305-6.723-15.040-15.023-15.060h-0.002q-0.035-0-0.070 0z">
		</path>
	</symbol>
	<symbol id="download" viewBox="0 0 24 24" fill="none" xmlns="http://www.w3.org/2000/svg">
		<path d="M16 11L12 15M12 15L8 11M12 15V3M21 15V17C21 18.1046 20.1046 19 19 19H5C3.89543 19 3 18.1046 3 17V15" stroke-width="2" stroke-linecap="round" stroke-linejoin="round" />
	</symbol>
	<symbol id="github" xmlns="http://www.w3.org/2000/svg" viewBox="0 0 32 32">
		<path d="M16 0.396c-8.839 0-16 7.167-16 16 0 7.073 4.584 13.068 10.937 15.183 0.803 0.151 1.093-0.344 1.093-0.772 0-0.38-0.009-1.385-0.015-2.719-4.453 0.964-5.391-2.151-5.391-2.151-0.729-1.844-1.781-2.339-1.781-2.339-1.448-0.989 0.115-0.968 0.115-0.968 1.604 0.109 2.448 1.645 2.448 1.645 1.427 2.448 3.744 1.74 4.661 1.328 0.14-1.031 0.557-1.74 1.011-2.135-3.552-0.401-7.287-1.776-7.287-7.907 0-1.751 0.62-3.177 1.645-4.297-0.177-0.401-0.719-2.031 0.141-4.235 0 0 1.339-0.427 4.4 1.641 1.281-0.355 2.641-0.532 4-0.541 1.36 0.009 2.719 0.187 4 0.541 3.043-2.068 4.381-1.641 4.381-1.641 0.859 2.204 0.317 3.833 0.161 4.235 1.015 1.12 1.635 2.547 1.635 4.297 0 6.145-3.74 7.5-7.296 7.891 0.556 0.479 1.077 1.464 1.077 2.959 0 2.14-0.020 3.864-0.020 4.385 0 0.416 0.28 0.916 1.104 0.755 6.4-2.093 10.979-8.093 10.979-15.156 0-8.833-7.161-16-16-16z" />
	</symbol>
	<symbol id="facebook" viewBox="0 0 48 48" xmlns="http://www.w3.org/2000/svg">
		<path fill-rule="evenodd" clip-rule="evenodd" d="M0 24C0 10.7452 10.7452 0 24 0C37.2548 0 48 10.7452 48 24C48 37.2548 37.2548 48 24 48C10.7452 48 0 37.2548 0 24ZM26.5016 38.1115V25.0542H30.1059L30.5836 20.5546H26.5016L26.5077 18.3025C26.5077 17.1289 26.6192 16.5001 28.3048 16.5001H30.5581V12H26.9532C22.6231 12 21.0991 14.1828 21.0991 17.8536V20.5551H18.4V25.0547H21.0991V38.1115H26.5016Z" />
	</symbol>
	<symbol id="instagram" viewBox="0 0 48 48" xmlns="http://www.w3.org/2000/svg">
		<path fill-rule="evenodd" clip-rule="evenodd" d="M0 24C0 10.7452 10.7452 0 24 0C37.2548 0 48 10.7452 48 24C48 37.2548 37.2548 48 24 48C10.7452 48 0 37.2548 0 24ZM24.0012 11.2C20.5249 11.2 20.0886 11.2152 18.7233 11.2773C17.3606 11.3397 16.4305 11.5555 15.6166 11.872C14.7747 12.1989 14.0606 12.6363 13.3491 13.348C12.6371 14.0595 12.1997 14.7736 11.8717 15.6152C11.5544 16.4294 11.3384 17.3598 11.2771 18.7219C11.216 20.0873 11.2 20.5238 11.2 24.0001C11.2 27.4764 11.2155 27.9114 11.2773 29.2767C11.34 30.6394 11.5557 31.5695 11.872 32.3834C12.1992 33.2253 12.6365 33.9394 13.3483 34.6509C14.0595 35.3629 14.7736 35.8013 15.615 36.1283C16.4294 36.4448 17.3598 36.6605 18.7222 36.7229C20.0876 36.7851 20.5236 36.8003 23.9996 36.8003C27.4762 36.8003 27.9111 36.7851 29.2765 36.7229C30.6391 36.6605 31.5703 36.4448 32.3848 36.1283C33.2264 35.8013 33.9394 35.3629 34.6506 34.6509C35.3626 33.9394 35.8 33.2253 36.128 32.3837C36.4427 31.5695 36.6587 30.6391 36.7227 29.277C36.784 27.9116 36.8 27.4764 36.8 24.0001C36.8 20.5238 36.784 20.0876 36.7227 18.7222C36.6587 17.3595 36.4427 16.4294 36.128 15.6155C35.8 14.7736 35.3626 14.0595 34.6506 13.348C33.9386 12.636 33.2266 12.1987 32.384 11.872C31.5679 11.5555 30.6373 11.3397 29.2746 11.2773C27.9092 11.2152 27.4746 11.2 23.9972 11.2H24.0012Z" />
		<path fill-rule="evenodd" clip-rule="evenodd" d="M22.8529 13.5067C23.1937 13.5062 23.574 13.5067 24.0012 13.5067C27.4188 13.5067 27.8239 13.519 29.1735 13.5803C30.4215 13.6374 31.0989 13.8459 31.5501 14.0211C32.1474 14.2531 32.5733 14.5304 33.021 14.9784C33.469 15.4264 33.7464 15.8531 33.9789 16.4505C34.1541 16.9011 34.3629 17.5785 34.4197 18.8265C34.481 20.1758 34.4944 20.5812 34.4944 23.9972C34.4944 27.4132 34.481 27.8186 34.4197 29.1679C34.3626 30.4159 34.1541 31.0933 33.9789 31.5439C33.7469 32.1413 33.469 32.5666 33.021 33.0144C32.573 33.4624 32.1477 33.7397 31.5501 33.9717C31.0994 34.1477 30.4215 34.3557 29.1735 34.4128C27.8242 34.4741 27.4188 34.4874 24.0012 34.4874C20.5833 34.4874 20.1782 34.4741 18.8289 34.4128C17.5809 34.3552 16.9035 34.1466 16.4521 33.9714C15.8547 33.7394 15.428 33.4621 14.98 33.0141C14.532 32.5661 14.2547 32.1405 14.0222 31.5429C13.847 31.0922 13.6382 30.4149 13.5814 29.1669C13.52 27.8175 13.5078 27.4122 13.5078 23.994C13.5078 20.5758 13.52 20.1726 13.5814 18.8233C13.6384 17.5753 13.847 16.8979 14.0222 16.4467C14.2542 15.8494 14.532 15.4227 14.98 14.9747C15.428 14.5267 15.8547 14.2494 16.4521 14.0168C16.9033 13.8408 17.5809 13.6328 18.8289 13.5755C20.0097 13.5222 20.4673 13.5062 22.8529 13.5035V13.5067ZM30.8338 15.632C29.9858 15.632 29.2978 16.3193 29.2978 17.1675C29.2978 18.0155 29.9858 18.7035 30.8338 18.7035C31.6818 18.7035 32.3698 18.0155 32.3698 17.1675C32.3698 16.3195 31.6818 15.632 30.8338 15.632ZM24.0012 17.4267C20.371 17.4267 17.4278 20.37 17.4278 24.0001C17.4278 27.6303 20.371 30.5722 24.0012 30.5722C27.6314 30.5722 30.5735 27.6303 30.5735 24.0001C30.5735 20.37 27.6314 17.4267 24.0012 17.4267Z" />
		<path fill-rule="evenodd" clip-rule="evenodd" d="M24.0012 19.7334C26.3575 19.7334 28.2679 21.6436 28.2679 24.0001C28.2679 26.3564 26.3575 28.2668 24.0012 28.2668C21.6446 28.2668 19.7345 26.3564 19.7345 24.0001C19.7345 21.6436 21.6446 19.7334 24.0012 19.7334Z" />
	</symbol>
	<symbol id="ukraine" width="843" height="444" viewBox="0 0 843 444" fill="none" xmlns="http://www.w3.org/2000/svg">
		<g filter="url(#filter0_i_14_28)">
			<path d="M843 159.898L836.918 148.514L794.811 128.695L741.399 129.002L712.233 101.43L678.628 112.138L651.879 104.076L633.324 108.999L598.467 60.9297L573.747 59.2688L557.062 8.00023L490.313 0L477.293 13.17L421.539 12.6164L403.606 33.2355L401.811 58.8997L384.345 44.8044L348.709 49.6051L339.429 35.2655L274.242 39.6347L183.478 9.0477L132.483 6.83061L94.2744 33.8489L109.244 75.5786L32.1262 130.356L37.5859 160.33L22.9256 155.344L0 180.58L37.4279 217.568L108.622 228.277L124.059 242.25L185.427 231.17L192.991 219.354L251.316 208.336L313.619 238.003L324.147 264.652L344.576 277.209L343.486 298.379L359.704 322.876L324.068 330.754L310.813 350.204L274.788 375.621L299.117 393.041L368.829 362.389L402.826 328.108L422.241 318.26L460.294 313.582L454.601 324.722L452.806 326.876L474.484 347.002L541.934 347.249L545.286 359.005L487.195 384.606L539.204 405.041L539.675 418.583L530.161 434.768L548.016 444L578.038 435.506L643.305 402.211L684.006 403.687L690.088 383.252L667.633 382.085L635.194 392.178L610.477 368.544L557.055 342.079L622.483 338.448L623.184 338.755L652.818 315.674L733.133 288.04L763.853 285.825L767.986 257.206L799.411 241.325L834.112 240.402L842.453 214.922L827.405 180.824L843 159.898Z" fill="white" fill-opacity="0.14" />
		</g>
		<defs>
			<filter id="filter0_i_14_28" x="0" y="-4" width="843" height="448" filterUnits="userSpaceOnUse" color-interpolation-filters="sRGB">
				<feFlood flood-opacity="0" result="BackgroundImageFix" />
				<feBlend mode="normal" in="SourceGraphic" in2="BackgroundImageFix" result="shape" />
				<feColorMatrix in="SourceAlpha" type="matrix" values="0 0 0 0 0 0 0 0 0 0 0 0 0 0 0 0 0 0 127 0" result="hardAlpha" />
				<feOffset dy="-20" />
				<feGaussianBlur stdDeviation="2" />
				<feComposite in2="hardAlpha" operator="arithmetic" k2="-1" k3="1" />
				<feColorMatrix type="matrix" values="0 0 0 0 0 0 0 0 0 0 0 0 0 0 0 0 0 0 0.25 0" />
				<feBlend mode="normal" in2="shape" result="effect1_innerShadow_14_28" />
			</filter>
		</defs>
	</symbol>
</svg>
