<?xml version="1.0" encoding="utf-8"?><svg viewBox="0 0 800 800" xmlns="http://www.w3.org/2000/svg" xmlns:xlink="http://www.w3.org/1999/xlink"><style>:root>svg{display:none}:root>svg:target{display:block}</style><svg viewBox="0 0 24 24" id="download" xmlns="http://www.w3.org/2000/svg"><path d="M16 11l-4 4m0 0l-4-4m4 4V3m9 12v2a2 2 0 01-2 2H5a2 2 0 01-2-2v-2"/></svg><svg viewBox="0 0 48 48" id="facebook" xmlns="http://www.w3.org/2000/svg"><path fill-rule="evenodd" clip-rule="evenodd" d="M0 24C0 10.745 10.745 0 24 0s24 10.745 24 24-10.745 24-24 24S0 37.255 0 24zm26.502 14.111V25.054h3.604l.478-4.5h-4.082l.006-2.252c0-1.173.111-1.802 1.797-1.802h2.253V12h-3.605c-4.33 0-5.854 2.183-5.854 5.854v2.701H18.4v4.5h2.7V38.11h5.402z"/></svg><svg viewBox="0 0 32 32" id="github" xmlns="http://www.w3.org/2000/svg"><path d="M16 .396c-8.839 0-16 7.167-16 16 0 7.073 4.584 13.068 10.937 15.183.803.151 1.093-.344 1.093-.772 0-.38-.009-1.385-.015-2.719-4.453.964-5.391-2.151-5.391-2.151-.729-1.844-1.781-2.339-1.781-2.339-1.448-.989.115-.968.115-.968 1.604.109 2.448 1.645 2.448 1.645 1.427 2.448 3.744 1.74 4.661 1.328.14-1.031.557-1.74 1.011-2.135-3.552-.401-7.287-1.776-7.287-7.907 0-1.751.62-3.177 1.645-4.297-.177-.401-.719-2.031.141-4.235 0 0 1.339-.427 4.4 1.641a15.436 15.436 0 014-.541c1.36.009 2.719.187 4 .541 3.043-2.068 4.381-1.641 4.381-1.641.859 2.204.317 3.833.161 4.235 1.015 1.12 1.635 2.547 1.635 4.297 0 6.145-3.74 7.5-7.296 7.891.556.479 1.077 1.464 1.077 2.959 0 2.14-.02 3.864-.02 4.385 0 .416.28.916 1.104.755 6.4-2.093 10.979-8.093 10.979-15.156 0-8.833-7.161-16-16-16z"/></svg><svg viewBox="0 0 48 48" id="instagram" xmlns="http://www.w3.org/2000/svg"><path fill-rule="evenodd" clip-rule="evenodd" d="M0 24C0 10.745 10.745 0 24 0s24 10.745 24 24-10.745 24-24 24S0 37.255 0 24zm24.001-12.8c-3.476 0-3.912.015-5.278.077-1.362.063-2.293.279-3.106.595a6.268 6.268 0 00-2.268 1.476 6.284 6.284 0 00-1.477 2.267c-.318.814-.534 1.745-.595 3.107-.061 1.365-.077 1.802-.077 5.278 0 3.476.016 3.911.077 5.277.063 1.362.279 2.293.595 3.106a6.271 6.271 0 001.476 2.268 6.268 6.268 0 002.267 1.477c.814.317 1.745.532 3.107.595 1.366.062 1.802.077 5.278.077 3.476 0 3.911-.015 5.276-.077 1.363-.063 2.294-.278 3.109-.595a6.263 6.263 0 002.266-1.477 6.284 6.284 0 001.477-2.267c.315-.814.53-1.745.595-3.107.061-1.365.077-1.8.077-5.277 0-3.476-.016-3.912-.077-5.278-.064-1.363-.28-2.293-.595-3.107a6.283 6.283 0 00-1.477-2.267 6.256 6.256 0 00-2.267-1.476c-.816-.316-1.747-.532-3.11-.595-1.365-.062-1.8-.077-5.277-.077h.004z"/><path fill-rule="evenodd" clip-rule="evenodd" d="M22.853 13.507H24c3.418 0 3.823.012 5.172.073 1.249.057 1.926.266 2.377.441.597.232 1.023.51 1.471.957.448.448.725.875.958 1.473.175.45.384 1.127.44 2.375.062 1.35.075 1.755.075 5.171 0 3.416-.013 3.822-.074 5.17-.057 1.249-.266 1.926-.441 2.377a3.958 3.958 0 01-.958 1.47 3.958 3.958 0 01-1.47.958c-.452.176-1.13.384-2.377.44-1.35.062-1.755.075-5.173.075s-3.823-.013-5.172-.074c-1.248-.058-1.925-.266-2.377-.442a3.964 3.964 0 01-1.472-.957 3.967 3.967 0 01-.958-1.471c-.175-.45-.384-1.128-.44-2.376-.062-1.35-.074-1.755-.074-5.173s.012-3.821.073-5.17c.057-1.249.266-1.926.441-2.377a3.96 3.96 0 01.958-1.472 3.973 3.973 0 011.472-.958c.451-.176 1.129-.384 2.377-.441 1.18-.054 1.638-.07 4.024-.072v.003zm7.98 2.125a1.536 1.536 0 100 3.072 1.536 1.536 0 000-3.072zm-6.832 1.795a6.574 6.574 0 100 13.147 6.574 6.574 0 000-13.147z"/><path fill-rule="evenodd" clip-rule="evenodd" d="M24.001 19.733a4.267 4.267 0 110 8.534 4.267 4.267 0 010-8.534z"/></svg><svg data-name="Layer 1" viewBox="0 0 512 512" id="linkedin" xmlns="http://www.w3.org/2000/svg"><path d="M256 0C114.615 0 0 114.615 0 256s114.615 256 256 256 256-114.615 256-256S397.385 0 256 0zm-72.565 382.667h-57.054V203.653h57.054zm-28.527-202.459a32.1 32.1 0 1132.1-32.1 32.1 32.1 0 01-32.1 32.1zM389.2 382.667h-56v-97.882c0-4.973.785-37.949-27.219-37.949a30.948 30.948 0 00-25.681 12.576 39.134 39.134 0 00-7.818 23.8v99.451H216.55v-179.01h53.216v25.124c12.737-19.541 28.789-26.694 44.578-29.573 28.027-5.11 74.851 11.952 74.851 62.9z"/></svg><svg viewBox="0 0 0 0" id="sprite"/><svg viewBox="0 0 48 48" id="telegram" xmlns="http://www.w3.org/2000/svg"><path fill-rule="evenodd" clip-rule="evenodd" d="M48 24c0 13.255-10.745 24-24 24S0 37.255 0 24 10.745 0 24 0s24 10.745 24 24zm-31.928-2.198c-2.405 1.05-4.875 2.128-7.134 3.372-1.18.864.388 1.474 1.86 2.047.233.092.464.182.682.272.18.055.365.114.551.173 1.636.521 3.46 1.103 5.048.229 2.608-1.499 5.07-3.231 7.53-4.962.806-.568 1.611-1.135 2.422-1.693l.128-.083c.69-.447 2.243-1.454 1.669-.067-1.358 1.486-2.814 2.8-4.276 4.123-.986.891-1.976 1.785-2.942 2.738-.841.683-1.715 2.058-.773 3.015 2.17 1.52 4.374 3.001 6.576 4.483.717.482 1.434.964 2.149 1.447 1.212.968 3.107.185 3.373-1.328l.356-2.087c.658-3.844 1.316-7.69 1.897-11.548.079-.605.168-1.21.258-1.815.217-1.467.435-2.936.503-4.41-.175-1.473-1.96-1.15-2.953-.818-5.106 1.942-10.16 4.029-15.194 6.152-.57.253-1.148.505-1.73.76z"/></svg><svg viewBox="0 0 260 175" id="ukraine" xmlns="http://www.w3.org/2000/svg"><path d="M258 63.607l-1.847-4.38-12.787-7.625-16.22.118-8.857-10.608-10.205 4.12-8.123-3.102-5.635 1.894-10.585-18.494-7.507-.639-5.067-19.725-20.27-3.078-3.954 5.067-16.931-.213-5.446 7.933-.545 9.874-5.304-5.423-10.822 1.847-2.818-5.517-19.796 1.681L57.718 5.569l-15.486-.853-11.603 10.395 4.546 16.055-23.419 21.075 1.658 11.532-4.452-1.918L2 71.564l11.366 14.231 21.62 4.12 4.688 5.376 18.636-4.263 2.297-4.546 17.712-4.239 18.92 11.414 3.197 10.253 6.204 4.831-.331 8.145 4.925 9.425-10.822 3.031-4.025 7.483-10.94 9.779 7.388 6.702 21.17-11.793 10.324-13.189 5.896-3.789 11.556-1.8-1.729 4.286-.545.829 6.583 7.743 20.483.095 1.018 4.523-17.641 9.85 15.794 7.862.143 5.21-2.889 6.227 5.422 3.552 9.117-3.268 19.82-12.81 12.36.568 1.847-7.862-6.819-.449-9.851 3.883-7.506-9.093-16.223-10.182 19.869-1.397.213.118 8.999-8.88 24.39-10.632 9.329-.852 1.255-11.011 9.543-6.11 10.538-.355 2.533-9.803-4.57-13.119z"/></svg><svg viewBox="0 0 473.677 473.677" id="ukraine-circle" xmlns="http://www.w3.org/2000/svg"><path d="M324.756 236.842h148.921C473.677 106.032 367.641 0 236.835 0c65.401 0 87.925 118.425 87.921 236.842z"/><path d="M0 236.842h334.935C334.939 118.425 302.236 0 236.835 0 106.036 0 0 106.032 0 236.842zM319.771 236.842c0 118.417-17.531 236.835-82.936 236.835 130.807 0 236.842-106.036 236.842-236.835H319.771z"/><path d="M334.935 236.842H0c0 130.799 106.036 236.835 236.835 236.835 65.401 0 98.1-118.417 98.1-236.835z"/></svg></svg>